<svg xmlns:dc="http://purl.org/dc/elements/1.1/" xmlns:cc="http://creativecommons.org/ns#" xmlns:rdf="http://www.w3.org/1999/02/22-rdf-syntax-ns#" xmlns:svg="http://www.w3.org/2000/svg" xmlns="http://www.w3.org/2000/svg" xmlns:sodipodi="http://sodipodi.sourceforge.net/DTD/sodipodi-0.dtd" xmlns:inkscape="http://www.inkscape.org/namespaces/inkscape" version="1.1" x="0px" y="0px" viewBox="0 0 100 125"><g transform="translate(0,-952.36218)"><path style="text-indent:0;text-transform:none;direction:ltr;block-progression:tb;baseline-shift:baseline;color:#862633;enable-background:accumulate;" d="m 8.0052901,964.36218 c -0.5523,0 -1,0.44772 -1,1 0,0.55228 0.4477,1 1,1 l 11.1874999,0 10.75,50.71872 c -0.1834,0.6277 0.4117,1.3454 1.0625,1.2813 l 50,0 c 0.5283,0.01 1.0142,-0.4716 1.0142,-1 0,-0.5284 -0.4859,-1.0075 -1.0142,-1 l -49.1875,0 -2.125,-10 55.3125,0 c 0.4477,-0 0.8708,-0.3444 0.9688,-0.7813 l 7,-29.99997 c 0.13,-0.58038 -0.374,-1.21453 -0.9688,-1.21875 l -69.0938,0 -1.9374,-9.21875 c -0.098,-0.43691 -0.5211,-0.77809 -0.9688,-0.78125 z m 15.3437999,12 67.4062,0 -6.5312,28.00002 -54.9688,0 z m 17.6562,48.00002 c -4.4064,0 -8,3.5935 -8,8 0,4.4064 3.5936,8 8,8 4.4064,0 8,-3.5936 8,-8 0,-4.4065 -3.5936,-8 -8,-8 z m 30,0 c -4.4064,0 -8,3.5935 -8,8 0,4.4064 3.5936,8 8,8 4.4064,0 8,-3.5936 8,-8 0,-4.4065 -3.5936,-8 -8,-8 z m -30,2 c 3.3256,0 6,2.6744 6,6 0,3.3255 -2.6744,6 -6,6 -3.3254,0 -6,-2.6745 -6,-6 0,-3.3256 2.6746,-6 6,-6 z m 30,0 c 3.3256,0 6,2.6744 6,6 0,3.3255 -2.6744,6 -6,6 -3.3254,0 -6,-2.6745 -6,-6 0,-3.3256 2.6746,-6 6,-6 z" fill="#862633" fill-opacity="1" stroke="none" marker="none" visibility="visible" display="inline" overflow="visible"/></g><text x="0" y="115" fill="#862633" font-size="5px" font-weight="bold" font-family="'Helvetica Neue', Helvetica, Arial-Unicode, Arial, Sans-serif"></text><text x="0" y="120" fill="#862633" font-size="5px" font-weight="bold" font-family="'Helvetica Neue', Helvetica, Arial-Unicode, Arial, Sans-serif"></text></svg>