<svg xmlns="http://www.w3.org/2000/svg" width="30.457" height="29.218" viewBox="0 0 30.457 29.218"><defs><style>.a{fill:#862633;}</style></defs><g transform="translate(0)"><g transform="translate(0 0)"><g transform="translate(5.844 4.675)"><path class="a" d="M202.108,101.193H188.084a1.17,1.17,0,0,1-1.128-.859L183.45,87.478A1.172,1.172,0,0,1,184.578,86h8.59a1.183,1.183,0,0,1,.958.5,1.162,1.162,0,0,1,.146,1.069,5.888,5.888,0,0,0,5.54,7.86,5.874,5.874,0,0,0,3.342-1.04,1.17,1.17,0,0,1,1.765,1.362l-1.706,4.687A1.193,1.193,0,0,1,202.108,101.193Zm-13.13-2.337H201.29l.485-1.338a8.218,8.218,0,0,1-10.185-7.976,8.28,8.28,0,0,1,.088-1.2h-5.569Z" transform="translate(-183.41 -86)"/></g><g transform="translate(14.024)"><path class="a" d="M331.616,22.432a8.216,8.216,0,1,1,7.737-10.98c.07.193.129.392.187.584a8.226,8.226,0,0,1-3.249,8.935A8.156,8.156,0,0,1,331.616,22.432Zm0-14.095a5.884,5.884,0,0,0-5.534,3.9,5.809,5.809,0,0,0-.339,1.981,5.879,5.879,0,1,0,11.547-1.56c-.041-.14-.082-.28-.134-.421A5.9,5.9,0,0,0,331.616,8.337Z" transform="translate(-323.4 -6)"/></g><g transform="translate(0 1.169)"><path class="a" d="M90.412,31.844a1.17,1.17,0,0,1-1.11-.8l-.9-2.706H84.569a1.169,1.169,0,1,1,0-2.337h4.675a1.169,1.169,0,0,1,1.11.8l1.169,3.506a1.17,1.17,0,0,1-.736,1.478A1.216,1.216,0,0,1,90.412,31.844Z" transform="translate(-83.4 -26)"/></g><g transform="translate(9.349 17.53)"><path class="a" d="M262.089,313H245.727a1.164,1.164,0,0,1-1.134-.882l-1.169-4.675a1.171,1.171,0,0,1,2.273-.567l.941,3.787h15.45a1.169,1.169,0,0,1,0,2.337Z" transform="translate(-243.389 -305.989)"/></g><g transform="translate(9.35 22.205)"><path class="a" d="M246.906,393.012a3.506,3.506,0,1,1,3.506-3.506A3.509,3.509,0,0,1,246.906,393.012Zm0-4.675a1.169,1.169,0,1,0,1.169,1.169A1.172,1.172,0,0,0,246.906,388.337Z" transform="translate(-243.4 -386)"/></g><g transform="translate(21.037 22.205)"><path class="a" d="M446.906,393.012a3.506,3.506,0,1,1,3.506-3.506A3.509,3.509,0,0,1,446.906,393.012Zm0-4.675a1.169,1.169,0,1,0,1.169,1.169A1.172,1.172,0,0,0,446.906,388.337Z" transform="translate(-443.4 -386)"/></g><g transform="translate(18.699 7.012)"><path class="a" d="M409.244,128.337h-4.675a1.169,1.169,0,0,1,0-2.337h4.675a1.169,1.169,0,1,1,0,2.337Z" transform="translate(-403.4 -126)"/></g><g transform="translate(23.374 4.675) rotate(90)"><path class="a" d="M5.843,2.337H1.169A1.169,1.169,0,0,1,1.169,0H5.843a1.169,1.169,0,1,1,0,2.337Z" transform="translate(0)"/></g></g></g></svg>