<svg xmlns="http://www.w3.org/2000/svg" xmlns:xlink="http://www.w3.org/1999/xlink" width="38.867" height="38.867" viewBox="0 0 38.867 38.867"><defs><style>.a{fill:#e6e7e2;}.b{clip-path:url(#a);}.c{fill:#ecc19c;}.d{fill:#7ae7c7;}.e{fill:#494846;}</style><clipPath id="a"><circle cx="19.434" cy="19.434" r="19.434"/></clipPath></defs><g transform="translate(55 68.999)"><g transform="translate(-55 -68.999)"><circle class="a" cx="19.434" cy="19.434" r="19.434" transform="translate(0 0)"/><g class="b" transform="translate(0 0)"><path class="c" d="M57.546,126.517h0a10.921,10.921,0,0,0-1.328-.859.126.126,0,0,0-.039-.02,7.127,7.127,0,0,1-3.689-6.247l-3.33-.016a7.127,7.127,0,0,1-3.72,6.262.012.012,0,0,0-.008,0,11.611,11.611,0,0,0-1.344.859,11.242,11.242,0,0,0-4.544,9.041H62.07A11.237,11.237,0,0,0,57.546,126.517Z" transform="translate(-31.371 -94.716)"/></g><g class="b" transform="translate(0 0)"><path class="d" d="M62.07,156.94H39.538a11.242,11.242,0,0,1,4.544-9.041,11.624,11.624,0,0,1,1.344-.859.013.013,0,0,1,.008,0,6.994,6.994,0,0,0,1.029-.69,6.076,6.076,0,0,0,8.694,0,6.578,6.578,0,0,0,1.017.686.124.124,0,0,1,.039.02,10.921,10.921,0,0,1,1.328.859h0A11.239,11.239,0,0,1,62.07,156.94Z" transform="translate(-31.37 -116.114)"/></g><g class="b" transform="translate(0 0)"><path class="c" d="M52.217,38.091V46.94c0,5.986,5.255,10.838,8.647,10.838s8.647-4.852,8.647-10.838V38.091Z" transform="translate(-41.43 -30.222)"/></g><g class="b" transform="translate(0 0)"><path class="e" d="M59.076,15.349a10.155,10.155,0,0,0-7.946-3.868,10.446,10.446,0,0,0-10.29,10.6A10.7,10.7,0,0,0,44.2,29.915a11.937,11.937,0,0,1-.83-4.417,11.439,11.439,0,0,1,2.057-6.661,11.8,11.8,0,0,0,5.993.491,11.792,11.792,0,0,0,5.6-2.067A10.976,10.976,0,0,1,60.5,25.5,11.775,11.775,0,0,1,59.5,30.29c2.031-.841,3.524-3.837,3.524-7.4C63.028,19.071,61.316,15.924,59.076,15.349Z" transform="translate(-32.404 -9.109)"/></g></g></g></svg>