<svg xmlns="http://www.w3.org/2000/svg" width="36" height="27" viewBox="0 0 36 27"><defs><style>.a{fill:#2b303b;}</style></defs><g transform="translate(-10 -20)"><path class="a" d="M32.115,47.555a1.913,1.913,0,0,1-1.35,1.71l-.135.4a1.288,1.288,0,0,1-1.305.9h-.45a1.327,1.327,0,0,1-1.305-.9l-.135-.4a1.913,1.913,0,0,1-1.35-1.71V46.7H12V58.67a3.015,3.015,0,0,0,3.015,3.015H43.14a3.015,3.015,0,0,0,3.015-3.015V46.7H32.115Z" transform="translate(-1.1 -14.685)"/><path class="a" d="M42.985,24.185H32.5V21.17a.6.6,0,0,0-.585-.585h-1.08A1.19,1.19,0,0,0,29.8,20H26.2a1.19,1.19,0,0,0-1.035.585h-1.08a.6.6,0,0,0-.585.585v3.015H13.015A3.015,3.015,0,0,0,10,27.2v4.185H24.985V29.9a1.969,1.969,0,0,1,2.07-1.845h1.89a1.968,1.968,0,0,1,2.07,1.845v1.485H46V27.2A3.015,3.015,0,0,0,42.985,24.185Zm-11.7,0h-6.57V21.8h.45a1.19,1.19,0,0,0,1.035.585h3.6a1.19,1.19,0,0,0,1.035-.585h.45Z"/><path class="a" d="M46.63,45.705a.422.422,0,0,0,.4.225h.45c.225,0,.4-.09.4-.225l.27-.945a1.073,1.073,0,0,0,1.17-.945v-2.97a1.076,1.076,0,0,0-1.17-.945H46.27a1.073,1.073,0,0,0-1.17.945v2.97a1.076,1.076,0,0,0,1.17.945Z" transform="translate(-19.305 -10.945)"/></g></svg>