<svg xmlns="http://www.w3.org/2000/svg" width="33.597" height="33" viewBox="0 0 33.597 33"><defs><style>.a{fill:#f0f0f0;}.b{fill:#d80027;}.c{fill:#0052b4;}</style></defs><g transform="translate(0 0.006)"><circle class="a" cx="16.5" cy="16.5" r="16.5" transform="translate(0.597 -0.006)"/><g transform="translate(0.568 3.589)"><path class="b" d="M244.87,193.52h17.213a16.513,16.513,0,0,0-.568-4.3H244.87Z" transform="translate(-229.66 -180.611)"/><path class="b" d="M244.87,59.955h14.792a16.582,16.582,0,0,0-3.806-4.3H244.87Z" transform="translate(-229.66 -55.652)"/><path class="b" d="M106.912,459.934a16.425,16.425,0,0,0,10.268-3.586H96.644A16.425,16.425,0,0,0,106.912,459.934Z" transform="translate(-90.985 -430.529)"/><path class="b" d="M10.672,327.085H38.821a16.4,16.4,0,0,0,1.853-4.3H8.819A16.4,16.4,0,0,0,10.672,327.085Z" transform="translate(-8.819 -305.569)"/></g><path class="c" d="M7.641,2.576h1.5l-1.4,1.016L8.28,5.236,6.882,4.22l-1.4,1.016.461-1.42a16.586,16.586,0,0,0-3.2,3.566h.482l-.89.647q-.208.347-.4.7l.425,1.308L1.57,9.465q-.3.626-.539,1.281L1.5,12.187H3.227L1.829,13.2l.534,1.644L.965,13.83l-.838.609A16.655,16.655,0,0,0,0,16.5H16.5V0A16.418,16.418,0,0,0,7.641,2.576Zm.639,12.27-1.4-1.016-1.4,1.016L6.018,13.2l-1.4-1.016H6.348l.534-1.644.534,1.644H9.144L7.746,13.2ZM7.746,8.4l.534,1.644-1.4-1.016-1.4,1.016L6.018,8.4,4.62,7.381H6.348l.534-1.644.534,1.644H9.144ZM14.2,14.846,12.8,13.83l-1.4,1.016.534-1.644-1.4-1.016h1.728l.534-1.644.534,1.644h1.728l-1.4,1.016ZM13.663,8.4l.534,1.644L12.8,9.025l-1.4,1.016L11.935,8.4l-1.4-1.016h1.728L12.8,5.738l.534,1.644h1.728Zm0-4.805L14.2,5.236,12.8,4.22,11.4,5.236l.534-1.644-1.4-1.016h1.728L12.8.932l.534,1.644h1.728Z" transform="translate(0 0.003)"/></g></svg>